<?xml version="1.0" encoding="UTF-8"?>
<svg width="84px" height="84px" viewBox="0 0 84 84" version="1.1" xmlns="http://www.w3.org/2000/svg" xmlns:xlink="http://www.w3.org/1999/xlink">
    <title>Group 7@2x</title>
    <g id="Design" stroke="none" stroke-width="1" fill="none" fill-rule="evenodd">
        <g id="221-1_progress_V1" transform="translate(-349.000000, -959.000000)">
            <g id="Group-6" transform="translate(349.000000, 934.000000)">
                <g id="Group-7" transform="translate(0.000000, 25.000000)">
                    <rect id="Rectangle" fill="#F2F7FA" x="0" y="0" width="84" height="84" rx="4"></rect>
                    <g id="Group-2" transform="translate(22.000000, 25.000000)" fill="#2B3339">
                        <g id="004-price">
                            <path d="M39.4442749,14.2944336 L21.6271973,3.27636719 C20.6234741,2.65563969 19.3765259,2.65563969 18.3728027,3.27636719 L15.4165649,5.10437016 L15.4165649,2.50213625 C15.4165649,1.14379883 14.3106079,0.0390625 12.9510498,0.0390625 L11.2677002,0.0390625 C9.90844727,0.0390625 8.80249023,1.14410398 8.80249023,2.50213625 L8.80249023,9.19464109 L0.555725078,14.2944336 C0.00518798437,14.6347046 -0.165100078,15.3567505 0.175476094,15.9072876 C0.515747031,16.4578247 1.23809812,16.6281128 1.78833008,16.2878418 L4.95361328,14.3304444 L4.95361328,30.5078125 L4.56512453,30.5078125 C3.91784672,30.5078125 3.39324953,31.0324097 3.39324953,31.6796875 C3.39324953,32.3269653 3.91784672,32.8515625 4.56512453,32.8515625 L35.4348755,32.8515625 C36.0821533,32.8515625 36.6067505,32.3269653 36.6067505,31.6796875 C36.6067505,31.0324097 36.0821533,30.5078125 35.4348755,30.5078125 L35.0463867,30.5078125 L35.0463867,14.3304444 L38.2113648,16.2875366 C38.4036255,16.40625 38.616333,16.4630127 38.8265991,16.4630127 C39.2193603,16.4630127 39.6029663,16.265564 39.8245239,15.9072876 C40.1651001,15.3567505 39.994812,14.6347046 39.4442749,14.2944336 Z M11.1459351,2.50213625 C11.1459351,2.43621828 11.2005616,2.3828125 11.2677002,2.3828125 L12.9510498,2.3828125 C13.0181884,2.3828125 13.0731202,2.43621828 13.0731202,2.50213625 L13.0731202,6.55364992 L11.1462402,7.74536133 L11.1462402,2.50213625 L11.1459351,2.50213625 Z M32.7026367,30.5078125 L7.29736328,30.5078125 L7.29736328,12.8808594 L19.6054077,5.26977539 C19.848938,5.11932375 20.151062,5.11932375 20.3945923,5.26977539 L32.7026367,12.8808594 L32.7026367,30.5078125 Z" id="Shape"></path>
                        </g>
                        <g id="001-euro" transform="translate(14.166667, 13.500000)">
                            <path d="M9.93417476,10.4196117 C9.8031068,10.0992233 9.66961165,9.77883495 9.52398058,9.46330097 C9.39533981,9.18174757 9.23029126,9.0992233 8.92203883,9.16961165 C8.53126214,9.25941748 8.14776699,9.37834951 7.75699029,9.4584466 C7.00213592,9.61621359 6.24485437,9.6307767 5.49970874,9.39533981 C4.56524272,9.10165049 4.0676699,8.42446602 3.76184466,7.55067961 L6.29582524,7.55067961 C6.49485437,7.55067961 6.65504854,7.39048544 6.65504854,7.19145631 L6.65504854,6.39291262 C6.65504854,6.1938835 6.49485437,6.03368932 6.29582524,6.03368932 L3.51912621,6.03368932 C3.51912621,5.81038835 3.51669903,5.59679612 3.51912621,5.38320388 L6.29582524,5.38320388 C6.49485437,5.38320388 6.65504854,5.22300971 6.65504854,5.02398058 L6.65504854,4.22543689 C6.65504854,4.02640777 6.49485437,3.86621359 6.29582524,3.86621359 L3.86864078,3.86621359 C3.86864078,3.85650485 3.86864078,3.84679612 3.87349515,3.84194175 C4.16475728,3.17932039 4.58951456,2.64776699 5.2861165,2.37106796 C6.09679612,2.05067961 6.92446602,2.05796117 7.75941748,2.23029126 C8.15504854,2.31038835 8.54339806,2.43174757 8.93902913,2.5215534 C9.22786408,2.58708738 9.39533981,2.50213592 9.51912621,2.23271845 C9.6623301,1.92203883 9.79339806,1.60650485 9.92446602,1.28854369 C10.0482524,0.99 9.97543689,0.778834951 9.6938835,0.613786408 C9.62349515,0.572524272 9.55067961,0.538543689 9.47543689,0.509417476 C8.30553398,0.0531067961 7.0992233,-0.116796117 5.85407767,0.0822330097 C4.97786408,0.223009709 4.15990291,0.523980583 3.45359223,1.07252427 C2.56281553,1.76184466 1.98514563,2.67203883 1.65019417,3.74242718 L1.60893204,3.86621359 L0.361359223,3.86621359 C0.162330097,3.86621359 0.00213592233,4.02640777 0.00213592233,4.22543689 L0.00213592233,5.02398058 C0.00213592233,5.22300971 0.162330097,5.38320388 0.361359223,5.38320388 L1.34436893,5.38320388 C1.34436893,5.60165049 1.34436893,5.81281553 1.34436893,6.03368932 L0.361359223,6.03368932 C0.162330097,6.03368932 0.00213592233,6.1938835 0.00213592233,6.39291262 L0.00213592233,7.19145631 C0.00213592233,7.39048544 0.162330097,7.55067961 0.361359223,7.55067961 L1.54582524,7.55067961 C1.63563107,7.84194175 1.71087379,8.13805825 1.82495146,8.41718447 C2.42446602,9.86378641 3.42932039,10.8929126 4.94145631,11.3832039 C6.19145631,11.7885437 7.45116505,11.7764078 8.71087379,11.4293204 C9.03854369,11.3395146 9.36378641,11.2230097 9.67446602,11.0798058 C9.97543689,10.9414563 10.0531068,10.7084466 9.93417476,10.4196117 Z" id="Path"></path>
                        </g>
                    </g>
                </g>
            </g>
        </g>
    </g>
</svg>