<?xml version="1.0" encoding="UTF-8"?>
<svg width="84px" height="84px" viewBox="0 0 84 84" version="1.1" xmlns="http://www.w3.org/2000/svg" xmlns:xlink="http://www.w3.org/1999/xlink">
    <title>Illus_tag@1x</title>
    <g id="Design" stroke="none" stroke-width="1" fill="none" fill-rule="evenodd">
        <g id="223_loading" transform="translate(-761.000000, -926.000000)">
            <g id="Illus_tag" transform="translate(761.000000, 926.000000)">
                <g id="Group-3-Copy-4" fill="#F2F7FA">
                    <rect id="Rectangle" x="0" y="0" width="84" height="84" rx="4"></rect>
                </g>
                <g id="offer-prices-icon-copy" transform="translate(17.000000, 22.500000)" fill="#2B3339">
                    <g id="Group-2-Copy-8" transform="translate(25.198029, 3.535534)">
                        <path d="M19.5300762,3.11775849 L19.7651903,3.30805371 L18.8047642,4.46026105 C15.0866703,1.36103218 9.5419029,1.84292991 6.4226051,5.53579191 C5.65013853,6.45029659 5.09886956,7.47596512 4.76315956,8.54866673 L12.9688147,8.5491463 C13.3830283,8.5491463 13.7188147,8.88493274 13.7188147,9.2991463 C13.7188147,9.67884207 13.4366608,9.99263726 13.0705853,10.0422997 L12.9688147,10.0491463 L4.43662882,10.0489482 C4.34499163,10.7753769 4.34583661,11.50945 4.43755023,12.2328161 L12.9688147,12.2333568 C13.3830283,12.2333568 13.7188147,12.5691433 13.7188147,12.9833568 C13.7188147,13.3630526 13.4366608,13.6768478 13.0705853,13.7265102 L12.9688147,13.7333568 L4.76418409,13.7330927 C5.24635472,15.2768747 6.16584698,16.7057352 7.5053019,17.8222421 C11.150492,20.8607018 16.5514236,20.4570943 19.7012074,16.9602321 L19.887461,16.7467112 L21.0333711,17.714642 C17.3817195,22.0377449 10.8960852,22.6014137 6.54487583,18.9744494 C4.84661043,17.5588549 3.72429456,15.7139992 3.20381549,13.7334018 L1.63622793,13.7333568 C1.22201437,13.7333568 0.886227928,13.3975704 0.886227928,12.9833568 C0.886227928,12.6036611 1.16838181,12.2898659 1.53445737,12.2402034 L1.63622793,12.2333568 L2.92739016,12.2334513 C2.84914955,11.5089172 2.84839675,10.7763998 2.92630879,10.0492446 L1.63622793,10.0491463 C1.22201437,10.0491463 0.886227928,9.71335986 0.886227928,9.2991463 C0.886227928,8.91945053 1.16838181,8.60565534 1.53445737,8.55599292 L1.63622793,8.5491463 L3.2021826,8.54902139 C3.57557265,7.12894334 4.26398102,5.76678894 5.276695,4.56786111 C8.86313851,0.321956486 15.1832548,-0.297580769 19.5300762,3.11775849 Z" id="Combined-Shape"></path>
                    </g>
                    <path d="M1.94385814,1.10548734 C2.43228045,5.71764453 5.75149853,8.98980335 10.9500557,9.6648593 L10.9501181,2.00199854 C10.9501181,1.62544075 11.2276275,1.31369877 11.5892886,1.26013046 L11.7001181,1.25199854 L26.0308155,1.25199854 C26.1853111,1.25199854 26.3350433,1.29967459 26.4602157,1.38708431 L26.5491807,1.45996757 L29.51944,4.30054129 C29.8187954,4.58682646 29.8293909,5.06158197 29.5431058,5.36093741 C29.2806777,5.63534656 28.8598822,5.66711719 28.5609921,5.4499942 L28.4827096,5.38460322 L25.7294458,2.75187871 L12.4499805,2.75187871 L12.4502382,9.78486005 C13.3993416,9.81578808 14.4009984,9.76706371 15.4504251,9.63236692 L15.4480286,9.53553391 C15.4480286,7.46446609 17.1269608,5.78553391 19.1980286,5.78553391 C21.2690964,5.78553391 22.9480286,7.46446609 22.9480286,9.53553391 C22.9480286,11.6066017 21.2690964,13.2855339 19.1980286,13.2855339 C17.6838304,13.2855339 16.3792428,12.3880846 15.7871581,11.0960783 C14.6251433,11.2524735 13.5104726,11.3098376 12.4502234,11.2765469 L12.4499805,15.686276 L34.1051257,36.9553408 L47.9116554,23.3965244 C48.2071754,23.1062816 48.6820298,23.1105596 48.9723374,23.4060146 C49.2625153,23.7015994 49.2582374,24.1764538 48.9627823,24.4667615 L34.63202,38.5414887 C34.3645717,38.8041612 33.9494223,38.8260506 33.657357,38.6071569 L33.580958,38.5414887 L11.174525,16.5352936 C11.0597192,16.4224149 10.9849798,16.2764528 10.9596787,16.1195382 L10.9501181,16.0001454 L10.9501756,11.165349 C4.97161396,10.4559696 1.02423029,6.66512684 0.452198985,1.26345238 C0.408578143,0.851542078 0.707135741,0.482261122 1.11904604,0.43864028 C1.53095635,0.395019438 1.9002373,0.693577036 1.94385814,1.10548734 Z M19.1980286,7.28553391 C17.9553879,7.28553391 16.9480286,8.29289322 16.9480286,9.53553391 L16.9533234,9.38639101 C17.6166322,9.25502487 18.296709,9.09091068 18.9924847,8.89263611 C19.3908393,8.77911737 19.8057946,9.01002243 19.9193133,9.40837701 C20.0328321,9.80673159 19.801927,10.2216869 19.4035724,10.3352056 C18.7093205,10.533046 18.0278663,10.6987117 17.360302,10.8333974 C17.7671129,11.4093287 18.438637,11.7855339 19.1980286,11.7855339 C20.4406693,11.7855339 21.4480286,10.7781746 21.4480286,9.53553391 C21.4480286,8.29289322 20.4406693,7.28553391 19.1980286,7.28553391 Z" id="Combined-Shape"></path>
                </g>
            </g>
        </g>
    </g>
</svg>