<?xml version="1.0" encoding="UTF-8"?>
<svg width="84px" height="84px" viewBox="0 0 84 84" version="1.1" xmlns="http://www.w3.org/2000/svg" xmlns:xlink="http://www.w3.org/1999/xlink">
    <title>Group 8@2x</title>
    <g id="Design" stroke="none" stroke-width="1" fill="none" fill-rule="evenodd">
        <g id="221-1_progress_V1" transform="translate(-598.000000, -959.000000)">
            <g id="Group-6" transform="translate(349.000000, 934.000000)">
                <g id="Group-8" transform="translate(249.000000, 25.000000)">
                    <rect id="Rectangle-Copy-2" fill="#F2F7FA" x="0" y="0" width="84" height="84" rx="4"></rect>
                    <g id="002-no-credit-card" transform="translate(22.000000, 21.000000)" fill="#2B3339">
                        <path d="M34.0725146,5.87594542 C26.500039,-1.82978558 13.8169981,-2.08335283 5.86690058,5.86690058 C-1.94651072,13.6802339 -1.96054581,26.2265887 5.85808967,34.0546589 C13.4305653,41.7603899 26.1136062,42.0138791 34.0637037,34.0637037 C41.877115,26.2503704 41.8910721,13.7040156 34.0725146,5.87594542 Z M19.9653021,2.34346979 C24.4036647,2.34346979 28.4634698,3.99352827 31.5650682,6.71150097 L26.9662378,11.3103314 L9.8288499,11.3103314 C7.89411306,11.3103314 6.32007797,12.8843665 6.32007797,14.8191033 L6.32007797,25.111501 C6.32007797,26.9897856 7.80366472,28.5278752 9.6605848,28.6159844 L6.71150097,31.5650682 C3.99352827,28.4633918 2.34346979,24.4036647 2.34346979,19.9653021 C2.34346979,10.248577 10.248577,2.34346979 19.9653021,2.34346979 Z M30.1017544,13.6495127 C30.7466667,13.6495127 31.271345,14.174191 31.271345,14.8191033 L31.271345,16.3005848 L25.2840546,16.3005848 L27.9351267,13.6495127 L30.1017544,13.6495127 Z M9.8288499,26.2810916 C9.18393762,26.2810916 8.65925926,25.7564133 8.65925926,25.111501 L8.65925926,18.6397661 L19.6368031,18.6397661 L16.985731,21.2908382 L12.479922,21.2908382 C11.8339961,21.2908382 11.3103314,21.8145029 11.3103314,22.4604288 C11.3103314,23.1063548 11.8339961,23.6300195 12.479922,23.6300195 L14.6465497,23.6300195 L11.9954776,26.2810916 L9.8288499,26.2810916 Z M8.65925926,16.3005848 L8.65925926,14.8191033 C8.65925926,14.174191 9.18393762,13.6495127 9.8288499,13.6495127 L24.6270565,13.6495127 L21.9759844,16.3005848 L8.65925926,16.3005848 Z M22.9448733,18.6397661 L31.271345,18.6397661 L31.271345,25.111501 C31.271345,25.7564133 30.7466667,26.2810916 30.1017544,26.2810916 L15.3035478,26.2810916 C19.7958674,21.788694 11.1129045,30.4717349 22.9448733,18.6397661 Z M19.9653021,37.5871345 C15.5269396,37.5871345 11.4671345,35.937076 8.36553606,33.2191033 L12.9643665,28.6202729 L30.1017544,28.6202729 C32.0364912,28.6202729 33.6105263,27.0462378 33.6105263,25.111501 L33.6105263,14.8191033 C33.6105263,12.9408187 32.1269396,11.402729 30.2700195,11.3146199 L33.2191033,8.36553606 C35.937076,11.4672125 37.5871345,15.5269396 37.5871345,19.9653021 C37.5871345,29.6819493 29.6819493,37.5871345 19.9653021,37.5871345 Z" id="Shape"></path>
                    </g>
                </g>
            </g>
        </g>
    </g>
</svg>