<?xml version="1.0" encoding="UTF-8"?>
<svg width="84px" height="84px" viewBox="0 0 84 84" version="1.1" xmlns="http://www.w3.org/2000/svg" xmlns:xlink="http://www.w3.org/1999/xlink">
    <title>Group 9@2x</title>
    <g id="Design" stroke="none" stroke-width="1" fill="none" fill-rule="evenodd">
        <g id="221-1_progress_V1" transform="translate(-845.000000, -959.000000)">
            <g id="Group-6" transform="translate(349.000000, 934.000000)">
                <g id="Group-9" transform="translate(496.000000, 25.000000)">
                    <rect id="Rectangle-Copy-3" fill="#F2F7FA" x="0" y="0" width="84" height="84" rx="4"></rect>
                    <g id="007-stopwatch" transform="translate(19.000000, 24.000000)" fill="#2B3339">
                        <rect id="Rectangle" x="21.5873016" y="0" width="8.25396825" height="3.80952381" rx="1.9047619"></rect>
                        <path d="M10.4761905,13.968254 L4.12698413,13.968254 C3.60099867,13.968254 3.17460321,14.3946495 3.17460321,14.9206349 C3.17460321,15.4466204 3.60099867,15.8730159 4.12698413,15.8730159 L10.4761905,15.8730159 C11.002176,15.8730159 11.4285714,15.4466204 11.4285714,14.9206349 C11.4285714,14.3946494 11.002176,13.968254 10.4761905,13.968254 L10.4761905,13.968254 Z" id="Path"></path>
                        <path d="M10.1587302,22.5396825 C10.1587302,22.0136971 9.73233468,21.5873016 9.20634921,21.5873016 L2.85714286,21.5873016 C2.33115738,21.5873016 1.9047619,22.0136971 1.9047619,22.5396825 C1.9047619,23.065668 2.33115738,23.4920635 2.85714286,23.4920635 L9.20634921,23.4920635 C9.73233468,23.4920635 10.1587302,23.065668 10.1587302,22.5396825 Z" id="Path"></path>
                        <path d="M9.84126984,25.3968254 L5.3968254,25.3968254 C4.87083992,25.3968254 4.44444444,25.8232209 4.44444444,26.3492063 C4.44444444,26.8751918 4.87083992,27.3015873 5.3968254,27.3015873 L9.84126984,27.3015873 C10.3672553,27.3015873 10.7936508,26.8751918 10.7936508,26.3492063 C10.7936508,25.8232209 10.3672553,25.3968254 9.84126984,25.3968254 Z" id="Path"></path>
                        <path d="M10.1587302,18.7301587 C10.1587302,18.2041733 9.73233468,17.7777778 9.20634921,17.7777778 L0.952380952,17.7777778 C0.426395476,17.7777778 -1.12784561e-15,18.2041733 -1.12784561e-15,18.7301587 C-1.12784561e-15,19.2561442 0.426395476,19.6825397 0.952380952,19.6825397 L9.20634921,19.6825397 C9.73233468,19.6825397 10.1587302,19.2561442 10.1587302,18.7301587 L10.1587302,18.7301587 Z" id="Path"></path>
                        <path d="M25.7142857,20.6349206 L25.7142857,9.84126984 C19.762619,9.84126984 14.9206349,14.683254 14.9206349,20.6349206 C14.9206349,26.5865873 19.762619,31.4285714 25.7142857,31.4285714 C31.6659524,31.4285714 36.5079365,26.5865873 36.5079365,20.6349206 L25.7142857,20.6349206 Z" id="Path"></path>
                        <path d="M36.1601587,10.9010317 L37.1813492,9.8797619 C37.425213,9.63983802 37.5216607,9.28755202 37.4340158,8.95686878 C37.346371,8.62618553 37.0881002,8.36791476 36.7574169,8.28026987 C36.4267337,8.19262499 36.0744477,8.28907269 35.8345238,8.53293651 L34.7716667,9.59571429 C32.7248117,7.90954759 30.2474041,6.8290578 27.6190476,6.47619048 L27.6190476,4.76190476 L23.8095238,4.76190476 L23.8095238,6.47619048 C21.1812167,6.82892012 18.7038139,7.90924291 16.6569048,9.5952381 L15.5940476,8.53246032 C15.3541237,8.2885965 15.0018377,8.1921488 14.6711545,8.27979368 C14.3404712,8.36743857 14.0822005,8.62570934 13.9945556,8.95639259 C13.9069107,9.28707583 14.0033584,9.63936183 14.2472222,9.87928571 L15.2684127,10.9005556 C12.7987561,13.5399965 11.4259269,17.0202498 11.4285676,20.6349206 C11.4285676,28.5120635 17.8371429,34.9206349 25.7142857,34.9206349 C33.5914286,34.9206349 40.0000035,28.5120635 40.0000035,20.6349206 C40.0025235,17.0204143 38.6297028,13.5403526 36.1601587,10.9010317 Z M25.7142857,32.3809524 C19.2271315,32.3809524 13.968254,27.1220748 13.968254,20.6349206 C13.968254,14.1477664 19.2271315,8.88888889 25.7142857,8.88888889 C32.2014399,8.88888889 37.4603175,14.1477664 37.4603175,20.6349206 C37.4603175,23.7501619 36.2227927,26.7378111 34.0199844,28.9406193 C31.8171762,31.1434276 28.829527,32.3809524 25.7142857,32.3809524 L25.7142857,32.3809524 Z" id="Shape"></path>
                    </g>
                </g>
            </g>
        </g>
    </g>
</svg>