<?xml version="1.0" encoding="UTF-8"?>
<svg width="84px" height="84px" viewBox="0 0 84 84" version="1.1" xmlns="http://www.w3.org/2000/svg" xmlns:xlink="http://www.w3.org/1999/xlink">
    <title>Illus_house@1x</title>
    <g id="Design" stroke="none" stroke-width="1" fill="none" fill-rule="evenodd">
        <g id="223_loading" transform="translate(-438.000000, -926.000000)">
            <g id="Illus_house" transform="translate(438.000000, 926.000000)">
                <g id="Group-3-Copy-3" fill="#F2F7FA">
                    <rect id="Rectangle" x="0" y="0" width="84" height="84" rx="4"></rect>
                </g>
                <g id="estates-icon-copy" transform="translate(15.500000, 19.500000)" fill="#2B3339">
                    <path d="M11.2049774,12.1689072 C11.5846731,12.1689072 11.8984683,12.451061 11.9481308,12.8171366 L11.9549774,12.9189072 L11.954,15.949 L13.389774,15.9496237 C13.7694698,15.9496237 14.083265,16.2317776 14.1329274,16.5978532 L14.139774,16.6996237 C14.139774,17.0793195 13.8576201,17.3931147 13.4915446,17.4427771 L13.389774,17.4496237 L11.2049774,17.4496237 C10.8252816,17.4496237 10.5114864,17.1674698 10.461824,16.8013943 L10.4549774,16.6996237 L10.454,13.668 L7.832,13.668 L7.83213043,16.6996237 C7.83213043,17.0793195 7.54997655,17.3931147 7.18390099,17.4427771 L7.08213043,17.4496237 L3.75,17.449 L3.75,29.201 L18.9722368,14.125695 C19.2379608,13.8625249 19.6513188,13.8386003 19.9438854,14.0539213 L20.0277632,14.125695 L35.25,29.202 L35.25,17.449 L25.5442085,17.4496237 C25.1645128,17.4496237 24.8507176,17.1674698 24.8010551,16.8013943 L24.7942085,16.6996237 C24.7942085,16.319928 25.0763624,16.0061328 25.442438,15.9564703 L25.5442085,15.9496237 L36,15.9496237 C36.3796958,15.9496237 36.693491,16.2317776 36.7431534,16.5978532 L36.75,16.6996237 L36.75,31 C36.75,31.6313585 36.0281771,31.9656204 35.5495846,31.6003153 L35.4722368,31.5328847 L19.499,15.713 L3.52776316,31.5328847 C3.07917484,31.9771616 2.33374205,31.6995121 2.25651807,31.1024065 L2.25,31 L2.25,16.6996237 C2.25,16.319928 2.53215388,16.0061328 2.89822944,15.9564703 L3,15.9496237 L6.332,15.949 L6.33213043,12.9189072 C6.33213043,12.5392114 6.61428431,12.2254162 6.98035987,12.1757538 L7.08213043,12.1689072 L11.2049774,12.1689072 Z" id="Path-2-Copy-3"></path>
                    <path d="M12.5390015,29.25 C12.9186972,29.25 13.2324924,29.5321539 13.2821548,29.8982294 L13.2890015,30 L13.2887707,36.671 L13.3082322,36.6716194 C13.7224458,36.6716194 14.0582322,37.0074059 14.0582322,37.4216194 C14.0582322,37.8013152 13.7760784,38.1151104 13.4100028,38.1647728 L13.3082322,38.1716194 L7.7697707,38.1716194 C7.35555713,38.1716194 7.0197707,37.835833 7.0197707,37.4216194 C7.0197707,37.0419236 7.30192458,36.7281285 7.66800014,36.678466 L7.7697707,36.6716194 L7.7887707,36.671 L7.78900146,30 C7.78900146,29.6203042 8.07115535,29.306509 8.43723091,29.2568466 L8.53900146,29.25 L12.5390015,29.25 Z M11.7887707,34.25 L9.2887707,34.25 L9.2887707,36.671 L11.7887707,36.671 L11.7887707,34.25 Z M11.7890015,30.75 L9.28900146,30.75 L9.2887707,32.75 L11.7887707,32.75 L11.7890015,30.75 Z" id="Combined-Shape"></path>
                    <path d="M30.4767466,29.25 C30.8564424,29.25 31.1702376,29.5321539 31.2199,29.8982294 L31.2267466,30 L31.2265159,36.671 L31.2459774,36.6716194 C31.660191,36.6716194 31.9959774,37.0074059 31.9959774,37.4216194 C31.9959774,37.8013152 31.7138235,38.1151104 31.347748,38.1647728 L31.2459774,38.1716194 L25.7075159,38.1716194 C25.2933023,38.1716194 24.9575159,37.835833 24.9575159,37.4216194 C24.9575159,37.0419236 25.2396697,36.7281285 25.6057453,36.678466 L25.7075159,36.6716194 L25.7265159,36.671 L25.7267466,30 C25.7267466,29.6203042 26.0089005,29.306509 26.3749761,29.2568466 L26.4767466,29.25 L30.4767466,29.25 Z M29.7265159,34.25 L27.2265159,34.25 L27.2265159,36.671 L29.7265159,36.671 L29.7265159,34.25 Z M29.726,30.75 L27.226,30.75 L27.2255159,32.75 L29.7255159,32.75 L29.726,30.75 Z" id="Combined-Shape"></path>
                    <path d="M23,29.25 C23.3796958,29.25 23.693491,29.5321539 23.7431534,29.8982294 L23.75,30 L23.75,42.671 L51.9618683,42.6716194 C52.3760818,42.6716194 52.7118683,43.0074059 52.7118683,43.4216194 C52.7118683,43.8013152 52.4297144,44.1151104 52.0636388,44.1647728 L51.9618683,44.1716194 L1.24,44.1716194 C0.825786438,44.1716194 0.49,43.835833 0.49,43.4216194 C0.49,43.0419236 0.772153882,42.7281285 1.13822944,42.678466 L1.24,42.6716194 L15.25,42.671 L15.25,30 C15.25,29.6203042 15.5321539,29.306509 15.8982294,29.2568466 L16,29.25 L23,29.25 Z M22.25,30.75 L16.75,30.75 L16.75,42.671 L22.25,42.671 L22.25,30.75 Z" id="Combined-Shape"></path>
                    <path d="M5.07800293,31.7920821 C5.4576987,31.7920821 5.77149389,32.074236 5.82115631,32.4403115 L5.82800293,32.5420821 L5.82800293,40.899225 C5.82800293,41.3134385 5.49221649,41.649225 5.07800293,41.649225 C4.69830716,41.649225 4.38451197,41.3670711 4.33484955,41.0009955 L4.32800293,40.899225 L4.32800293,32.5420821 C4.32800293,32.1278685 4.66378937,31.7920821 5.07800293,31.7920821 Z" id="Line-5-Copy-8"></path>
                    <path d="M33.9534933,31.7920821 C34.333189,31.7920821 34.6469842,32.074236 34.6966466,32.4403115 L34.7034933,32.5420821 L34.7034933,40.899225 C34.7034933,41.3134385 34.3677068,41.649225 33.9534933,41.649225 C33.5737975,41.649225 33.2600023,41.3670711 33.2103399,41.0009955 L33.2034933,40.899225 L33.2034933,32.5420821 C33.2034933,32.1278685 33.5392797,31.7920821 33.9534933,31.7920821 Z" id="Line-5-Copy-9"></path>
                    <path d="M49,0.25 C49.3796958,0.25 49.693491,0.532153882 49.7431534,0.898229443 L49.75,1 L49.75,40.899225 C49.75,41.3134385 49.4142136,41.649225 49,41.649225 C48.6203042,41.649225 48.306509,41.3670711 48.2568466,41.0009955 L48.25,40.899225 L48.25,1.75 L23.75,1.75 L23.75,13.5803604 C23.75,13.9600562 23.4678461,14.2738514 23.1017706,14.3235138 L23,14.3303604 C22.6203042,14.3303604 22.306509,14.0482065 22.2568466,13.682131 L22.25,13.5803604 L22.25,1 C22.25,0.620304234 22.5321539,0.306509039 22.8982294,0.256846616 L23,0.25 L49,0.25 Z" id="Path-5-Copy"></path>
                    <path d="M30.5,4.09323883 L27.5,4.09323883 C27.0857864,4.09323883 26.75,4.42902527 26.75,4.84323883 L26.75,10.8432388 C26.75,11.2574524 27.0857864,11.5932388 27.5,11.5932388 L30.5,11.5932388 C30.9142136,11.5932388 31.25,11.2574524 31.25,10.8432388 L31.25,4.84323883 C31.25,4.42902527 30.9142136,4.09323883 30.5,4.09323883 Z M29.75,5.593 L29.75,10.093 L28.25,10.093 L28.25,5.593 L29.75,5.593 Z" id="Rectangle-Copy-5"></path>
                    <path d="M37.5,4.09323883 L34.5,4.09323883 C34.0857864,4.09323883 33.75,4.42902527 33.75,4.84323883 L33.75,10.8432388 C33.75,11.2574524 34.0857864,11.5932388 34.5,11.5932388 L37.5,11.5932388 C37.9142136,11.5932388 38.25,11.2574524 38.25,10.8432388 L38.25,4.84323883 C38.25,4.42902527 37.9142136,4.09323883 37.5,4.09323883 Z M36.75,5.593 L36.75,10.093 L35.25,10.093 L35.25,5.593 L36.75,5.593 Z" id="Rectangle-Copy-9"></path>
                    <path d="M44.5,4.09323883 L41.5,4.09323883 C41.0857864,4.09323883 40.75,4.42902527 40.75,4.84323883 L40.75,10.8432388 C40.75,11.2574524 41.0857864,11.5932388 41.5,11.5932388 L44.5,11.5932388 C44.9142136,11.5932388 45.25,11.2574524 45.25,10.8432388 L45.25,4.84323883 C45.25,4.42902527 44.9142136,4.09323883 44.5,4.09323883 Z M43.75,5.593 L43.75,10.093 L42.25,10.093 L42.25,5.593 L43.75,5.593 Z" id="Rectangle-Copy-10"></path>
                    <path d="M44.5,16.0932388 L41.5,16.0932388 C41.0857864,16.0932388 40.75,16.4290253 40.75,16.8432388 L40.75,22.8432388 C40.75,23.2574524 41.0857864,23.5932388 41.5,23.5932388 L44.5,23.5932388 C44.9142136,23.5932388 45.25,23.2574524 45.25,22.8432388 L45.25,16.8432388 C45.25,16.4290253 44.9142136,16.0932388 44.5,16.0932388 Z M43.75,17.593 L43.75,22.093 L42.25,22.093 L42.25,17.593 L43.75,17.593 Z" id="Rectangle-Copy-11"></path>
                    <path d="M44.5,29.0932388 L41.5,29.0932388 C41.0857864,29.0932388 40.75,29.4290253 40.75,29.8432388 L40.75,35.8432388 C40.75,36.2574524 41.0857864,36.5932388 41.5,36.5932388 L44.5,36.5932388 C44.9142136,36.5932388 45.25,36.2574524 45.25,35.8432388 L45.25,29.8432388 C45.25,29.4290253 44.9142136,29.0932388 44.5,29.0932388 Z M43.75,30.593 L43.75,35.093 L42.25,35.093 L42.25,30.593 L43.75,30.593 Z" id="Rectangle-Copy-12"></path>
                </g>
            </g>
        </g>
    </g>
</svg>