<?xml version="1.0" encoding="UTF-8"?>
<svg width="93px" height="87px" viewBox="0 0 93 87" version="1.1" xmlns="http://www.w3.org/2000/svg" xmlns:xlink="http://www.w3.org/1999/xlink">
    <title>illus_message@2x</title>
    <g id="Design" stroke="none" stroke-width="1" fill="none" fill-rule="evenodd">
        <g id="225_result_message" transform="translate(-673.000000, -388.000000)">
            <g id="illus_message" transform="translate(674.000000, 388.000000)">
                <g id="noun_send_2419005" transform="translate(4.000000, 0.000000)" fill="#2B3339" fill-rule="nonzero">
                    <path d="M69.2016373,80.3183221 C70.1577183,81.5169939 72.085815,81.0578663 72.3914712,79.5424546 L87.961106,2.18962497 C88.075546,1.64186831 87.935031,1.06941175 87.5714305,0.639342858 C87.5699819,0.639342858 87.5699819,0.639342858 87.5699819,0.639342858 L87.5699819,0.639342858 C87.0875956,0.0712451025 86.4444138,0.0320158458 86.4255819,0.0145806206 C86.1532437,-0.0144780881 85.9055317,-0.00576047553 85.6143616,0.0930391341 L1.26628563,26.5989403 C-0.372089587,27.1147324 -0.438725538,29.4263526 1.17212614,30.0322267 L28.7825874,40.4163563 L25.3667706,64.3970556 C25.365322,64.4057732 25.3667706,64.4144909 25.365322,64.4232085 C25.1842461,65.8543499 26.6676203,66.930975 27.9699185,66.278607 L49.4237974,55.5181672 L69.2016373,80.3183221 Z M69.6072474,75.0122019 C68.4440155,73.5534547 45.2069006,44.4206463 44.1132019,43.0490753 L83.3110755,6.93055329 L69.6072474,75.0122019 Z M7.37216676,28.4833975 L74.851207,7.2792578 L30.5411971,37.1981043 L7.37216676,28.4833975 Z M32.4577049,40.2841391 L67.2807836,16.7698321 L40.4192524,41.5220401 C40.4120094,41.5278519 40.406215,41.5351166 40.3989719,41.5423812 C40.3757942,41.5641753 40.3540651,41.5874222 40.3308874,41.6106692 C40.3106069,41.6324632 40.2903264,41.6542573 40.2714945,41.6775042 C40.2541112,41.6978453 40.2381765,41.7167335 40.2222418,41.7370746 C40.1990641,41.7661333 40.177335,41.795192 40.1570545,41.8257036 C40.15126,41.8344213 40.144017,41.8431389 40.1382226,41.8518565 L30.0805398,56.984179 L32.4577049,40.2841391 Z M32.4461161,59.9699614 L41.7765978,45.9331521 L47.1074738,52.6166551 L32.4461161,59.9699614 Z" id="Shape"></path>
                </g>
                <line x1="19.4" y1="39.6" x2="6" y2="53" id="Line" stroke="#2B3339" stroke-width="2" stroke-linecap="round" stroke-dasharray="4,4"></line>
                <line x1="25.4090909" y1="52.5909091" x2="0" y2="78" id="Line-Copy" stroke="#2B3339" stroke-width="2" stroke-linecap="round" stroke-dasharray="4,4"></line>
                <line x1="54.4117647" y1="61.5882353" x2="30" y2="86" id="Line-Copy-2" stroke="#2B3339" stroke-width="2" stroke-linecap="round"></line>
                <line x1="25" y1="65" x2="10" y2="80" id="Line-Copy-3" stroke="#2B3339" stroke-width="2" stroke-linecap="round"></line>
            </g>
        </g>
    </g>
</svg>