<?xml version="1.0" encoding="UTF-8"?>
<svg width="108px" height="104px" viewBox="0 0 108 104" version="1.1" xmlns="http://www.w3.org/2000/svg" xmlns:xlink="http://www.w3.org/1999/xlink">
    <title>Illus_thankyou@1x</title>
    <g id="Design" stroke="none" stroke-width="1" fill="none" fill-rule="evenodd" stroke-linecap="round" stroke-linejoin="round">
        <g id="224_result-copy" transform="translate(-666.000000, -373.000000)" stroke-width="2.52">
            <g id="Group-5-Copy-6" transform="translate(504.000000, 327.000000)">
                <g id="Illus_thankyou" transform="translate(164.000000, 48.000000)">
                    <g id="Group-2-Copy-2" transform="translate(52.287378, 50.384730) rotate(20.000000) translate(-52.287378, -50.384730) translate(10.787378, 11.884730)" stroke="#2B3339">
                        <path d="M73.92,36.96 C73.92,16.5475556 57.3724444,-3.0559022e-12 36.96,-3.0559022e-12 C16.5475556,-3.0559022e-12 1.22236088e-11,16.5475556 1.22236088e-11,36.96" id="Path"></path>
                        <path d="M2.65734897,41.7585884 C4.75383258,60.1813855 20.3947685,74.4936106 39.3785037,74.4936106 C43.0114491,74.4936106 46.521971,73.9694534 49.8385701,72.9926383" id="Path" stroke-dasharray="3.359999942779541,8.4" transform="translate(26.247960, 58.126099) rotate(-5.000000) translate(-26.247960, -58.126099) "></path>
                        <g id="Group-Copy-3" transform="translate(73.051736, 29.215738) rotate(-95.000000) translate(-73.051736, -29.215738) translate(64.551736, 20.715738)">
                            <polyline id="Path-9" transform="translate(8.726833, 8.303159) rotate(-48.000000) translate(-8.726833, -8.303159) " points="2.95732433 14.0739588 2.95732433 2.53235882 14.4963411 2.53235882"></polyline>
                        </g>
                    </g>
                    <path d="M88.9766844,82.6381086 C86.4899728,82.6381086 84.0841298,82.2337652 81.8400242,81.5059472 C81.1324233,81.2633412 80.3439538,81.4452957 79.7980902,81.9911592 L76.6239949,85.9739413 C70.9025364,83.2446236 65.544987,78.0892458 62.6943663,72.1656157 L66.636714,68.8095658 C67.1825776,68.2434851 67.3443149,67.4550156 67.121926,66.7474147 C66.3738908,64.5033091 65.9897647,62.0974662 65.9897647,59.6107545 C65.9897647,58.5190275 65.0799921,57.6092549 63.988265,57.6092549 L56.993125,57.6092549 C55.9013979,57.6092549 54.587282,58.0944669 54.587282,59.6107545 C54.587282,78.3925034 70.2151527,94.0001569 88.9766844,94.0001569 C90.4121033,94.0001569 90.978184,92.7264753 90.978184,91.6145311 L90.978184,84.6396082 C90.978184,83.5478811 90.0684114,82.6381086 88.9766844,82.6381086 Z" id="Path" stroke="#2B3339"></path>
                    <polyline id="Path-10-Copy-7" stroke="#11CEC3" points="34.9992339 48.329538 44.4832713 55.3564258 61.7566769 34.2268748"></polyline>
                </g>
            </g>
        </g>
    </g>
</svg>