<?xml version="1.0" encoding="UTF-8"?>
<svg width="102px" height="71px" viewBox="0 0 102 71" version="1.1" xmlns="http://www.w3.org/2000/svg" xmlns:xlink="http://www.w3.org/1999/xlink">
    <title>Illus_Loading@1x</title>
    <g id="Design" stroke="none" stroke-width="1" fill="none" fill-rule="evenodd">
        <g id="223_loading" transform="translate(-671.000000, -599.000000)">
            <g id="Illus_Loading" transform="translate(671.801971, 599.500000)">
                <g id="roof" transform="translate(20.500000, 0.000000)">
                    <path d="M54,8 C54.5128358,8 54.9355072,8.38604019 54.9932723,8.88337887 L55,9 L55,24.6655045 C55,25.2177892 54.5522847,25.6655045 54,25.6655045 C53.4871642,25.6655045 53.0644928,25.2794643 53.0067277,24.7821256 L53,24.6655045 L53.0006001,9.99978547 L36,10 C35.4871642,10 35.0644928,9.61395981 35.0067277,9.11662113 L35,9 C35,8.48716416 35.3860402,8.06449284 35.8833789,8.00672773 L36,8 L54,8 Z M28.3473318,4.75683603 L28.4427295,4.84441978 L46.7321657,23.9243056 C47.114344,24.3230012 47.1009541,24.9560246 46.7022585,25.3382029 C46.3342317,25.6909828 45.7665411,25.7067106 45.3807882,25.3934579 L45.2883612,25.3082956 L27.7226001,6.98278547 L10.2232001,25.3069391 C9.87111169,25.6756275 9.30466947,25.7164099 8.9054592,25.4204982 L8.80936146,25.3395007 C8.4406731,24.9874123 8.39989069,24.42097 8.69580241,24.0217598 L8.77679988,23.925662 L26.9976271,4.84577626 C27.3305032,4.49720599 27.852492,4.44313789 28.2440247,4.68387193 L28.3473318,4.75683603 Z M17.188069,0 C17.7009048,0 18.1235762,0.38604019 18.1813413,0.883378875 L18.188069,1 L18.188069,5.53641479 C18.188069,6.04925063 17.8020288,6.47192195 17.3046901,6.52968706 L17.188069,6.53641479 L15.2876001,6.53578547 L15.2876001,8.01878547 L19.121172,8.01911005 C19.6340078,8.01911005 20.0566791,8.40515024 20.1144442,8.90248893 L20.121172,9.01911005 C20.121172,9.53194589 19.7351318,9.95461721 19.2377931,10.0123823 L19.121172,10.0191101 L14.287502,10.0191101 C13.7746661,10.0191101 13.3519948,9.63306986 13.2942297,9.13573118 L13.287502,9.01911005 L13.287502,5.53641479 C13.287502,5.02357895 13.6735422,4.60090763 14.1708808,4.54314252 L14.287502,4.53641479 L16.1886001,4.53578547 L16.1886001,1.99978547 L8.28560013,1.99978547 L8.28560013,4.53578547 L10.0964976,4.53641479 C10.6093335,4.53641479 11.0320048,4.92245498 11.0897699,5.41979367 L11.0964976,5.53641479 L11.0964976,9.01911005 C11.0964976,9.53194589 10.7104574,9.95461721 10.2131188,10.0123823 L10.0964976,10.0191101 L2.00060013,10.0187855 L2,15.6487875 C2,16.1616233 1.61395981,16.5842947 1.11662113,16.6420598 L1,16.6487875 C0.487164161,16.6487875 0.0644928393,16.2627473 0.00672773133,15.7654086 L0,15.6487875 L0,9.01911005 C0,8.50627421 0.38604019,8.08360289 0.883378875,8.02583778 L1,8.01911005 L9.09660013,8.01878547 L9.09660013,6.53578547 L7.28517532,6.53641479 C6.77233948,6.53641479 6.34966816,6.1503746 6.29190305,5.65303592 L6.28517532,5.53641479 L6.28517532,1 C6.28517532,0.487164161 6.67121551,0.0644928393 7.1685542,0.00672773133 L7.28517532,0 L17.188069,0 Z" id="Shape-Copy-6" fill="#2B3339"></path>
                    <path d="M27.7206001,16.1567612 C25.5114611,16.1567612 23.7206001,17.9476222 23.7206001,20.1567612 C23.7206001,22.3659002 25.5114611,24.1567612 27.7206001,24.1567612 C29.9297391,24.1567612 31.7206001,22.3659002 31.7206001,20.1567612 C31.7206001,17.9476222 29.9297391,16.1567612 27.7206001,16.1567612 Z M27.7206001,18.1567612 C28.8251696,18.1567612 29.7206001,19.0521917 29.7206001,20.1567612 C29.7206001,21.2613307 28.8251696,22.1567612 27.7206001,22.1567612 C26.6160306,22.1567612 25.7206001,21.2613307 25.7206001,20.1567612 C25.7206001,19.0521917 26.6160306,18.1567612 27.7206001,18.1567612 Z" id="Oval-Copy-7" fill="#010101" fill-rule="nonzero"></path>
                </g>
                <g id="calc" transform="translate(58.000000, 26.156761)" fill="#2B3339">
                    <path d="M33.5,0.843238831 C38.4705627,0.843238831 42.5,4.87267608 42.5,9.84323883 L42.5,33.8432388 C42.5,38.8138016 38.4705627,42.8432388 33.5,42.8432388 L9.5,42.8432388 C4.52943725,42.8432388 0.5,38.8138016 0.5,33.8432388 L0.5,9.84323883 C0.5,4.87267608 4.52943725,0.843238831 9.5,0.843238831 L33.5,0.843238831 Z M20.5,22.8432388 L2.5,22.8432388 L2.5,33.8432388 C2.5,37.6286906 5.50478338,40.7123375 9.25935025,40.8391798 L9.5,40.8432388 L20.5,40.8432388 L20.5,22.8432388 Z M40.5,22.8432388 L22.5,22.8432388 L22.5,40.8432388 L33.5,40.8432388 C37.2854517,40.8432388 40.3690987,37.8384554 40.495941,34.0838886 L40.5,33.8432388 L40.5,22.8432388 Z M20.5,2.84323883 L9.5,2.84323883 C5.71454828,2.84323883 2.63090132,5.84802221 2.50405902,9.60258908 L2.5,9.84323883 L2.5,20.8432388 L20.5,20.8432388 L20.5,2.84323883 Z M33.5,2.84323883 L22.5,2.84323883 L22.5,20.8432388 L40.5,20.8432388 L40.5,9.84323883 C40.5,6.05778711 37.4952166,2.97414015 33.7406498,2.84729785 L33.5,2.84323883 Z" id="Combined-Shape"></path>
                    <path d="M35.9042553,33.1518259 C36.4565401,33.1518259 36.9042553,33.5995412 36.9042553,34.1518259 C36.9042553,34.6646617 36.5182151,35.0873331 36.0208764,35.1450982 L35.9042553,35.1518259 L27.0957447,35.1518259 C26.5434599,35.1518259 26.0957447,34.7041107 26.0957447,34.1518259 C26.0957447,33.6389901 26.4817849,33.2163187 26.9791236,33.1585536 L27.0957447,33.1518259 L35.9042553,33.1518259 Z" id="Line-6-Copy-2"></path>
                    <path d="M11.7896154,26.2090246 C12.3024512,26.2090246 12.7251225,26.5950648 12.7828877,27.0924035 L12.7896154,27.2090246 L12.7896154,30.6130246 L16.1946154,30.6140246 C16.7469001,30.6140246 17.1946154,31.0617399 17.1946154,31.6140246 C17.1946154,32.1268605 16.8085752,32.5495318 16.3112365,32.6072969 L16.1946154,32.6140246 L12.7896154,32.6130246 L12.7896154,36.0190246 C12.7896154,36.5713094 12.3419001,37.0190246 11.7896154,37.0190246 C11.2767795,37.0190246 10.8541082,36.6329845 10.7963431,36.1356458 L10.7896154,36.0190246 L10.7896154,32.6130246 L7.38461538,32.6140246 C6.83233063,32.6140246 6.38461538,32.1663094 6.38461538,31.6140246 C6.38461538,31.1011888 6.77065557,30.6785175 7.26799426,30.6207524 L7.38461538,30.6140246 L10.7896154,30.6130246 L10.7896154,27.2090246 C10.7896154,26.6567399 11.2373306,26.2090246 11.7896154,26.2090246 Z" id="Combined-Shape"></path>
                    <path d="M15.4161883,8.37704959 C15.778818,8.73967929 15.8047202,9.31152469 15.4938947,9.70404234 L15.4161883,9.79126316 L13.0084708,12.1981564 L15.4161883,14.6066603 C15.8067126,14.9971846 15.8067126,15.6303496 15.4161883,16.0208739 C15.0535586,16.3835036 14.4817132,16.4094057 14.0891956,16.0985803 L14.0019748,16.0208739 L11.5934708,13.6131564 L9.18657759,16.0208739 C8.7960533,16.4113982 8.16288832,16.4113982 7.77236403,16.0208739 C7.40973433,15.6582442 7.38383221,15.0863988 7.69465767,14.6938811 L7.77236403,14.6066603 L10.1794708,12.1981564 L7.77236403,9.79126316 C7.38183974,9.40073886 7.38183974,8.76757388 7.77236403,8.37704959 C8.13499373,8.01441989 8.70683912,7.98851777 9.09935678,8.29934323 L9.18657759,8.37704959 L11.5934708,10.7841564 L14.0019748,8.37704959 C14.3924991,7.9865253 15.025664,7.9865253 15.4161883,8.37704959 Z" id="Combined-Shape"></path>
                    <path d="M35.9042553,28.1518259 C36.4565401,28.1518259 36.9042553,28.5995412 36.9042553,29.1518259 C36.9042553,29.6646617 36.5182151,30.0873331 36.0208764,30.1450982 L35.9042553,30.1518259 L27.0957447,30.1518259 C26.5434599,30.1518259 26.0957447,29.7041107 26.0957447,29.1518259 C26.0957447,28.6389901 26.4817849,28.2163187 26.9791236,28.1585536 L27.0957447,28.1518259 L35.9042553,28.1518259 Z" id="Line-6-Copy-3"></path>
                    <path d="M35.6538462,11.0422006 C36.2061309,11.0422006 36.6538462,11.4899158 36.6538462,12.0422006 C36.6538462,12.5550364 36.267806,12.9777077 35.7704673,13.0354728 L35.6538462,13.0422006 L27.3461538,13.0422006 C26.7938691,13.0422006 26.3461538,12.5944853 26.3461538,12.0422006 C26.3461538,11.5293647 26.732194,11.1066934 27.2295327,11.0489283 L27.3461538,11.0422006 L35.6538462,11.0422006 Z" id="Line-6-Copy-7"></path>
                </g>
                <g id="front" transform="translate(8.200478, 34.156761)" fill="#2B3339">
                    <path d="M29.7995224,0 C30.3123582,0 30.7350296,0.38604019 30.7927947,0.883378875 L30.7995224,1 L30.7995224,12.274 L30.8857976,12.2795625 C31.3831363,12.3373276 31.7691765,12.7599989 31.7691765,13.2728348 C31.7691765,13.7856706 31.3831363,14.2083419 30.8857976,14.266107 L30.7691765,14.2728348 L20.7995224,14.2728348 C20.2472377,14.2728348 19.7995224,13.8251195 19.7995224,13.2728348 C19.7995224,12.7599989 20.1855626,12.3373276 20.6829013,12.2795625 L20.7995224,12.2728348 L20.7995224,1 C20.7995224,0.487164161 21.1855626,0.0644928393 21.6829013,0.00672773132 L21.7995224,0 L29.7995224,0 Z M28.7995224,8.25 L22.7995224,8.25 L22.7995224,12.272 L28.7995224,12.272 L28.7995224,8.25 Z M28.8001225,1.9990243 L22.8001225,1.9990243 L22.7995224,6.25 L28.7995224,6.25 L28.8001225,1.9990243 Z" id="Combined-Shape"></path>
                    <path d="M1,24.5591507 C0.44771525,24.5591507 -9.09494702e-13,24.1114354 -9.09494702e-13,23.5591507 C-9.09494702e-13,23.0463149 0.38604019,22.6236435 0.883378875,22.5658784 L1,22.5591507 L16.049,22.559 L16.0495224,8.65585242 C16.0495224,8.10356767 16.4972377,7.65585242 17.0495224,7.65585242 C17.5623582,7.65585242 17.9850296,8.04189261 18.0427947,8.5392313 L18.0495224,8.65585242 L18.049,22.559 L27.799,22.559 L27.7995224,18.4364777 L27.8062501,18.3198565 C27.8640152,17.8225179 28.2866866,17.4364777 28.7995224,17.4364777 L28.7995224,17.4364777 L33.799,17.436 L33.7995224,1 C33.7995224,0.487164161 34.1855626,0.0644928393 34.6829013,0.00672773132 L34.7995224,0 L44.7995224,0 C45.3123582,0 45.7350296,0.38604019 45.7927947,0.883378875 L45.7995224,1 L45.799,17.436 L47.402697,17.4364777 L47.5193181,17.4432054 C48.0166568,17.5009705 48.402697,17.9236418 48.402697,18.4364777 L48.402697,18.4364777 L48.3959693,18.5530988 C48.3382042,19.0504375 47.9155328,19.4364777 47.402697,19.4364777 L47.402697,19.4364777 L29.7990969,19.4360243 L29.799,22.559 L47.402697,22.5591507 C47.9549818,22.5591507 48.402697,23.0068659 48.402697,23.5591507 C48.402697,24.0719865 48.0166568,24.4946579 47.5193181,24.552423 L47.402697,24.5591507 L1,24.5591507 Z M43.8001225,1.9990243 L35.8001225,1.9990243 L35.799,17.436 L43.799,17.436 L43.8001225,1.9990243 Z" id="Combined-Shape"></path>
                </g>
                <g id="euro" transform="translate(0.000000, 16.156761)" fill="#2B3339">
                    <path d="M14,0.843238831 C21.4558441,0.843238831 27.5,6.88739471 27.5,14.3432388 C27.5,21.799083 21.4558441,27.8432388 14,27.8432388 C6.54415588,27.8432388 0.5,21.799083 0.5,14.3432388 C0.5,6.88739471 6.54415588,0.843238831 14,0.843238831 Z M14,2.84323883 C7.64872538,2.84323883 2.5,7.99196421 2.5,14.3432388 C2.5,20.6945135 7.64872538,25.8432388 14,25.8432388 C20.3512746,25.8432388 25.5,20.6945135 25.5,14.3432388 C25.5,7.99196421 20.3512746,2.84323883 14,2.84323883 Z" id="Oval"></path>
                    <path d="M18.9936234,8.02761036 L19.2164167,8.19939557 L17.9689996,9.76270958 C15.269988,7.60908396 11.2314058,7.94507882 8.97213828,10.5054685 C8.53557015,11.0002237 8.19754298,11.5418299 7.95614568,12.1089731 L14.4042553,12.1088419 C14.9565401,12.1088419 15.4042553,12.5565571 15.4042553,13.1088419 C15.4042553,13.6216777 15.0182151,14.0443491 14.5208764,14.1021142 L14.4042553,14.1088419 L7.50478044,14.1089984 C7.49052093,14.4587797 7.50861582,14.8090162 7.55868199,15.1554356 L14.5,15.155839 C15.0522847,15.155839 15.5,15.6035542 15.5,16.155839 C15.5,16.6686748 15.1139598,17.0913461 14.6166211,17.1491112 L14.5,17.155839 L8.24070854,17.1558124 C8.60973379,17.8121917 9.1151024,18.414518 9.75331536,18.9237681 C12.3848516,21.0235531 16.2898173,20.7566426 18.5774442,18.3688635 L18.7501767,18.1810092 L20.2498233,19.5042855 C17.2827643,22.8668032 12.0353802,23.3033659 8.5058983,20.4870821 C7.35249365,19.5667445 6.52382676,18.4119801 6.03237585,17.1559507 L5.5,17.155839 C4.94771525,17.155839 4.5,16.7081237 4.5,16.155839 C4.5,15.6430031 4.88604019,15.2203318 5.38337887,15.1625667 L5.5,15.155839 L5.54338778,15.1556759 C5.50614683,14.8063972 5.49278553,14.4548408 5.50353245,14.1034462 L5.59574468,14.1088419 C5.04345993,14.1088419 4.59574468,13.6611266 4.59574468,13.1088419 C4.59574468,12.5960061 4.98178487,12.1733347 5.47912356,12.1155696 L5.59574468,12.1088419 L5.830511,12.1088591 C6.14696131,11.0652571 6.69212092,10.0665732 7.47249169,9.18219218 C10.377737,5.88972688 15.4692835,5.40257184 18.9936234,8.02761036 Z" id="Combined-Shape"></path>
                </g>
            </g>
        </g>
    </g>
</svg>