<?xml version="1.0" encoding="UTF-8"?>
<svg width="80px" height="80px" viewBox="0 0 80 80" version="1.1" xmlns="http://www.w3.org/2000/svg" xmlns:xlink="http://www.w3.org/1999/xlink">
    <title>Group 19</title>
    <g id="Design" stroke="none" stroke-width="1" fill="none" fill-rule="evenodd">
        <g id="Group-19">
            <rect id="Rectangle-Copy-14" x="0" y="0" width="80" height="80"></rect>
            <g id="icon" transform="translate(9.000000, 17.000000)" fill-rule="nonzero">
                <g id="euro" transform="translate(35.555246, 0.000000)" fill="#2B3339">
                    <path d="M13.5,0 C20.9558441,0 27,6.04415588 27,13.5 C27,20.9558441 20.9558441,27 13.5,27 C6.04415588,27 0,20.9558441 0,13.5 C0,6.04415588 6.04415588,0 13.5,0 Z M13.5,2 C7.14872538,2 2,7.14872538 2,13.5 C2,19.8512746 7.14872538,25 13.5,25 C19.8512746,25 25,19.8512746 25,13.5 C25,7.14872538 19.8512746,2 13.5,2 Z M18.4936234,7.18437153 L18.7164167,7.35615674 L17.4689996,8.91947075 C14.769988,6.76584513 10.7314058,7.10183999 8.47213828,9.66222963 C7.98008464,10.2198657 7.61321179,10.8370184 7.3687834,11.4831708 L13.9042553,11.483325 C14.4565401,11.483325 14.9042553,11.9310403 14.9042553,12.483325 C14.9042553,12.9961608 14.5182151,13.4188322 14.0208764,13.4765973 L13.9042553,13.483325 L7.00007966,13.483517 C6.99922771,13.8344915 7.03087033,14.1850319 7.09462049,14.5308219 L14,14.5303221 C14.5522847,14.5303221 15,14.9780373 15,15.5303221 C15,16.0431579 14.6139598,16.4658292 14.1166211,16.5235943 L14,16.5303221 L7.86987418,16.5311041 C8.22464373,17.1027531 8.68660738,17.6283353 9.25331536,18.0805293 C11.8848516,20.1803142 15.7898173,19.9134037 18.0774442,17.5256247 L18.2501767,17.3377704 L19.7498233,18.6610466 C16.7827643,22.0235644 11.5353802,22.460127 8.0058983,19.6438433 C6.91955321,18.7770146 6.12128275,17.7022261 5.62151275,16.5307374 L5,16.5303221 C4.44771525,16.5303221 4,16.0826068 4,15.5303221 C4,15.0174862 4.38604019,14.5948149 4.88337887,14.5370498 L5,14.5303221 L5.06981919,14.5307759 C5.0224848,14.1815421 4.99912107,13.8295052 4.99995859,13.4771262 L5.09574468,13.483325 C4.54345993,13.483325 4.09574468,13.0356098 4.09574468,12.483325 C4.09574468,11.9704892 4.48178487,11.5478178 4.97912356,11.4900527 L5.09574468,11.483325 L5.26794341,11.4834691 C5.57244447,10.361151 6.1379768,9.28469495 6.97249169,8.33895335 C9.87773699,5.04648805 14.9692835,4.55933301 18.4936234,7.18437153 Z" id="Combined-Shape"></path>
                </g>
                <path d="M26.1481836,1.06209067 L26.2627499,1.12946476 L33.7746057,6.24379438 C34.2311274,6.55461004 34.3492455,7.17665989 34.0384298,7.63318159 C33.7498152,8.0570946 33.1928406,8.18922082 32.7492285,7.95707675 L32.6490426,7.89700571 L25.7640082,3.209 L16.4175809,11.0744246 C15.7967145,11.5969009 14.8633084,11.199339 14.7797361,10.422756 L14.7737038,10.3092957 L14.7730082,6.498 L11.6580082,6.498 L11.6580722,14.1210948 C11.6580722,14.3672897 11.5673331,14.603296 11.4056715,14.7852532 L11.3190222,14.8715247 L3.65000824,21.625 L10.1441618,21.6257881 C10.6569977,21.6257881 11.079669,22.0118283 11.1374341,22.509167 L11.1441618,22.6257881 L11.1441618,37.8118187 C11.1441618,38.3641034 10.6964466,38.8118187 10.1441618,38.8118187 C9.63132598,38.8118187 9.20865466,38.4257785 9.15088955,37.9284398 L9.14416182,37.8118187 L9.14400824,23.625 L1.00200824,23.6257881 C0.11865402,23.6257881 -0.313897751,22.5777143 0.260394851,21.9541626 L0.341058175,21.8753583 L9.65800824,13.669 L9.65807216,5.49818573 C9.65807216,4.98534989 10.0441124,4.56267857 10.541451,4.50491346 L10.6580722,4.49818573 L15.7737038,4.49818573 C16.2865397,4.49818573 16.709211,4.88422592 16.7669761,5.3815646 L16.7737038,5.49818573 L16.7730082,8.161 L25.0560912,1.19094149 C25.3647719,0.9311782 25.7950865,0.884850905 26.1481836,1.06209067 Z M32.032394,18.8839446 C32.5452298,18.8839446 32.9679012,19.2699848 33.0256663,19.7673234 L33.032394,19.8839446 L33.032394,32.7848031 C33.032394,33.3370879 32.5846788,33.7848031 32.032394,33.7848031 C31.5195582,33.7848031 31.0968868,33.3987629 31.0391217,32.9014243 L31.032394,32.7848031 L31.0320082,20.883 L20.6730082,20.883 L20.6734682,30.775495 C20.6734682,31.2883308 20.287428,31.7110022 19.7900893,31.7687673 L19.6734682,31.775495 C19.1606323,31.775495 18.737961,31.3894548 18.6801959,30.8921161 L18.6734682,30.775495 L18.6734682,19.8839446 C18.6734682,19.3711087 19.0595084,18.9484374 19.5568471,18.8906723 L19.6734682,18.8839446 L32.032394,18.8839446 Z" id="Combined-Shape" fill="#2B3339"></path>
                <path d="M11.4945268,42.5193562 C11.9083688,42.1536333 12.540331,42.1926416 12.9060539,42.6064836 C13.2717768,43.0203256 13.2327686,43.6522878 12.8189265,44.0180107 L12.8189265,44.0180107 L11.320272,45.3424104 C10.90643,45.7081333 10.2744678,45.6691251 9.90874491,45.255283 C9.54302202,44.841441 9.58203028,44.2094788 9.9958723,43.8437559 L9.9958723,43.8437559 Z M33.4506057,40.4123082 C33.851306,40.0322323 34.4842502,40.0489517 34.8643261,40.4496521 C35.244402,40.8503524 35.2276825,41.4832966 34.8269822,41.8633725 L34.8269822,41.8633725 L33.3759178,43.239749 C32.9752175,43.6198249 32.3422733,43.6031055 31.9621974,43.2024051 C31.5821215,42.8017047 31.598841,42.1687606 31.9995413,41.7886847 L31.9995413,41.7886847 Z M27.6620328,38.9801324 C28.0471664,38.5842909 28.6802719,38.5756104 29.0761135,38.960744 L29.0761135,38.960744 L30.5095825,40.3554363 C30.905424,40.7405699 30.9141045,41.3736754 30.5289709,41.769517 C30.1438373,42.1653585 29.5107318,42.174039 29.1148902,41.7889053 L29.1148902,41.7889053 L27.6814212,40.3942131 C27.2855797,40.0090794 27.2768992,39.375974 27.6620328,38.9801324 Z M15.9904903,38.546157 C16.4043324,38.1804341 17.0362946,38.2194423 17.4020175,38.6332844 C17.7677403,39.0471264 17.7287321,39.6790886 17.3148901,40.0448115 L17.3148901,40.0448115 L15.8162356,41.3692112 C15.4023935,41.7349341 14.7704313,41.6959258 14.4047084,41.2820838 C14.0389856,40.8682418 14.0779938,40.2362796 14.4918358,39.8705567 L14.4918358,39.8705567 Z M37.8037987,36.2831786 C38.204499,35.9031028 38.8374432,35.9198222 39.2175191,36.3205226 C39.597595,36.7212229 39.5808755,37.3541671 39.1801752,37.734243 L39.1801752,37.734243 L37.7291108,39.1106195 C37.3284105,39.4906954 36.6954663,39.4739759 36.3153904,39.0732756 C35.9353145,38.6725752 35.952034,38.039631 36.3527343,37.6595552 L36.3527343,37.6595552 Z M44.4674457,30.1276887 C44.9799691,30.109791 45.4158556,30.480845 45.4909424,30.9758647 L45.501736,31.09218 L45.711133,37.088525 C45.7304075,37.6404733 45.29859,38.1035409 44.7466417,38.1228153 C44.2341182,38.140713 43.7982318,37.769659 43.723145,37.2746393 L43.7123514,37.158324 L43.5850604,33.5490678 L43.5333682,33.6051135 L42.0823038,34.98149 C41.6816035,35.3615658 41.0486593,35.3448464 40.6685834,34.9441461 C40.2885075,34.5434457 40.305227,33.9105015 40.7059273,33.5304256 L40.7059273,33.5304256 L42.0940604,32.2120678 L38.5408997,32.3358673 C38.0283763,32.3537651 37.5924898,31.982711 37.5174031,31.4876913 L37.5066094,31.371376 C37.4887117,30.8588526 37.8597657,30.4229661 38.3547855,30.3478793 L38.4711007,30.3370857 L44.4674457,30.1276887 Z M23.3616257,34.7960556 C23.7467593,34.4002141 24.3798648,34.3915336 24.7757063,34.7766673 L24.7757063,34.7766673 L26.2091754,36.1713595 C26.6050169,36.5564931 26.6136974,37.1895986 26.2285638,37.5854402 C25.8434301,37.9812817 25.2103247,37.9899622 24.8144831,37.6048286 L24.8144831,37.6048286 L23.3810141,36.2101363 C22.9851725,35.8250027 22.976492,35.1918972 23.3616257,34.7960556 Z M20.4864539,34.5729578 C20.9002959,34.2072349 21.5322581,34.2462431 21.897981,34.6600852 C22.2637039,35.0739272 22.2246956,35.7058894 21.8108536,36.0716123 L21.8108536,36.0716123 L20.3121991,37.396012 C19.8983571,37.7617349 19.2663949,37.7227266 18.900672,37.3088846 C18.5349491,36.8950426 18.5739573,36.2630804 18.9877994,35.8973575 L18.9877994,35.8973575 Z" id="Combined-Shape" fill="var(--ff-primary-color)"></path>
            </g>
        </g>
    </g>
</svg>