<?xml version="1.0" encoding="UTF-8"?>
<svg width="28px" height="35px" viewBox="0 0 28 35" version="1.1" xmlns="http://www.w3.org/2000/svg" xmlns:xlink="http://www.w3.org/1999/xlink">
    <title>Combined Shape</title>
    <g id="Design" stroke="none" stroke-width="1" fill="none" fill-rule="evenodd">
        <path d="M14.1968338,-3.01980663e-14 L19.0228279,7.92801168 C24.2735444,9.94685105 28,15.0382454 28,21 C28,28.7319865 21.7319865,35 14,35 C6.2680135,35 0,28.7319865 0,21 C0,14.898373 3.90336405,9.70842554 9.34923146,7.7910183 L14.1968338,-3.01980663e-14 Z M14,12 C9.02943725,12 5,16.0294373 5,21 C5,25.9705627 9.02943725,30 14,30 C18.9705627,30 23,25.9705627 23,21 C23,16.0294373 18.9705627,12 14,12 Z" id="Combined-Shape" fill="#2B3339"></path>
    </g>
</svg>