<?xml version="1.0" encoding="UTF-8"?>
<svg width="80px" height="80px" viewBox="0 0 80 80" version="1.1" xmlns="http://www.w3.org/2000/svg" xmlns:xlink="http://www.w3.org/1999/xlink">
    <title>Group 20</title>
    <g id="Design" stroke="none" stroke-width="1" fill="none" fill-rule="evenodd">
        <g id="Group-20">
            <rect id="Rectangle-Copy-13" x="0" y="0" width="80" height="80"></rect>
            <g id="icon" transform="translate(9.000000, 17.000000)" fill-rule="nonzero">
                <g id="euro" transform="translate(35.555246, 0.000000)" fill="#2B3339">
                    <path d="M13.5,0 C20.9558441,0 27,6.04415588 27,13.5 C27,20.9558441 20.9558441,27 13.5,27 C6.04415588,27 0,20.9558441 0,13.5 C0,6.04415588 6.04415588,0 13.5,0 Z M13.5,2 C7.14872538,2 2,7.14872538 2,13.5 C2,19.8512746 7.14872538,25 13.5,25 C19.8512746,25 25,19.8512746 25,13.5 C25,7.14872538 19.8512746,2 13.5,2 Z M18.4936234,7.18437153 L18.7164167,7.35615674 L17.4689996,8.91947075 C14.769988,6.76584513 10.7314058,7.10183999 8.47213828,9.66222963 C7.98008464,10.2198657 7.61321179,10.8370184 7.3687834,11.4831708 L13.9042553,11.483325 C14.4565401,11.483325 14.9042553,11.9310403 14.9042553,12.483325 C14.9042553,12.9961608 14.5182151,13.4188322 14.0208764,13.4765973 L13.9042553,13.483325 L7.00007966,13.483517 C6.99922771,13.8344915 7.03087033,14.1850319 7.09462049,14.5308219 L14,14.5303221 C14.5522847,14.5303221 15,14.9780373 15,15.5303221 C15,16.0431579 14.6139598,16.4658292 14.1166211,16.5235943 L14,16.5303221 L7.86987418,16.5311041 C8.22464373,17.1027531 8.68660738,17.6283353 9.25331536,18.0805293 C11.8848516,20.1803142 15.7898173,19.9134037 18.0774442,17.5256247 L18.2501767,17.3377704 L19.7498233,18.6610466 C16.7827643,22.0235644 11.5353802,22.460127 8.0058983,19.6438433 C6.91955321,18.7770146 6.12128275,17.7022261 5.62151275,16.5307374 L5,16.5303221 C4.44771525,16.5303221 4,16.0826068 4,15.5303221 C4,15.0174862 4.38604019,14.5948149 4.88337887,14.5370498 L5,14.5303221 L5.06981919,14.5307759 C5.03826293,14.2979533 5.0173603,14.063885 5.00717962,13.8293 L4.999,13.477 L4.97912356,13.4765973 C4.48178487,13.4188322 4.09574468,12.9961608 4.09574468,12.483325 C4.09574468,11.9704892 4.48178487,11.5478178 4.97912356,11.4900527 L5.09574468,11.483325 L5.26794341,11.4834691 C5.57244447,10.361151 6.1379768,9.28469495 6.97249169,8.33895335 C9.87773699,5.04648805 14.9692835,4.55933301 18.4936234,7.18437153 Z" id="Combined-Shape"></path>
                </g>
                <path d="M26.1481836,1.06209067 L26.2627499,1.12946476 L33.7746057,6.24379438 C34.2311274,6.55461004 34.3492455,7.17665989 34.0384298,7.63318159 C33.7498152,8.0570946 33.1928406,8.18922082 32.7492285,7.95707675 L32.6490426,7.89700571 L25.7640082,3.209 L16.4175809,11.0744246 C15.7967145,11.5969009 14.8633084,11.199339 14.7797361,10.422756 L14.7737038,10.3092957 L14.7730082,6.498 L11.6580082,6.498 L11.6580722,14.1210948 C11.6580722,14.3672897 11.5673331,14.603296 11.4056715,14.7852532 L11.3190222,14.8715247 L3.65000824,21.625 L10.1441618,21.6257881 C10.6569977,21.6257881 11.079669,22.0118283 11.1374341,22.509167 L11.1441618,22.6257881 L11.1441618,37.8118187 C11.1441618,38.3641034 10.6964466,38.8118187 10.1441618,38.8118187 C9.63132598,38.8118187 9.20865466,38.4257785 9.15088955,37.9284398 L9.14416182,37.8118187 L9.14400824,23.625 L1.00200824,23.6257881 C0.11865402,23.6257881 -0.313897751,22.5777143 0.260394851,21.9541626 L0.341058175,21.8753583 L9.65800824,13.669 L9.65807216,5.49818573 C9.65807216,4.98534989 10.0441124,4.56267857 10.541451,4.50491346 L10.6580722,4.49818573 L15.7737038,4.49818573 C16.2865397,4.49818573 16.709211,4.88422592 16.7669761,5.3815646 L16.7737038,5.49818573 L16.7730082,8.161 L25.0560912,1.19094149 C25.3647719,0.9311782 25.7950865,0.884850905 26.1481836,1.06209067 Z M32.032394,18.8839446 C32.5452298,18.8839446 32.9679012,19.2699848 33.0256663,19.7673234 L33.032394,19.8839446 L33.032394,32.7848031 C33.032394,33.3370879 32.5846788,33.7848031 32.032394,33.7848031 C31.5195582,33.7848031 31.0968868,33.3987629 31.0391217,32.9014243 L31.032394,32.7848031 L31.0320082,20.883 L20.6730082,20.883 L20.6734682,30.775495 C20.6734682,31.2883308 20.287428,31.7110022 19.7900893,31.7687673 L19.6734682,31.775495 C19.1606323,31.775495 18.737961,31.3894548 18.6801959,30.8921161 L18.6734682,30.775495 L18.6734682,19.8839446 C18.6734682,19.3711087 19.0595084,18.9484374 19.5568471,18.8906723 L19.6734682,18.8839446 L32.032394,18.8839446 Z" id="Combined-Shape" fill="#2B3339"></path>
                <path d="M44.2272954,30.1898809 C44.7394284,30.1630412 45.1817243,30.5264314 45.2654389,31.0200653 L45.2782609,31.1361745 L45.5922766,37.1279517 C45.621181,37.6794796 45.1975109,38.1500129 44.645983,38.1789172 C44.13385,38.205757 43.6915542,37.8423667 43.6078395,37.3487328 L43.5950176,37.2326236 L43.4100604,33.7214857 L32.6703869,43.9089656 C32.3109594,44.2498928 31.7622727,44.2728096 31.3774421,43.979958 L31.2848525,43.9001679 L22.5590082,35.41 L11.320272,45.3424104 C10.938264,45.6800008 10.3704021,45.6727315 9.99764818,45.3441176 L9.90874491,45.255283 C9.57115455,44.873275 9.57842387,44.3054131 9.90703775,43.9326592 L9.9958723,43.8437559 L21.9295381,33.2976669 C22.2888332,32.9801485 22.8167886,32.9656277 23.191062,33.2463768 L23.2890841,33.3302597 L31.9910082,41.796 L41.9910604,32.3094857 L38.3401901,32.5011558 C37.8280571,32.5279955 37.3857612,32.1646053 37.3020466,31.6709714 L37.2892246,31.5548622 C37.2623849,31.0427292 37.6257751,30.6004333 38.119409,30.5167187 L38.2355182,30.5038967 L44.2272954,30.1898809 Z" id="Combined-Shape" fill="var(--ff-primary-color)"></path>
            </g>
        </g>
    </g>
</svg>