<?xml version="1.0" encoding="UTF-8"?>
<svg width="80px" height="80px" viewBox="0 0 80 80" version="1.1" xmlns="http://www.w3.org/2000/svg" xmlns:xlink="http://www.w3.org/1999/xlink">
    <title>Group 21</title>
    <g id="Design" stroke="none" stroke-width="1" fill="none" fill-rule="evenodd">
        <g id="Group-18">
            <rect id="Rectangle" x="0" y="0" width="80" height="80"></rect>
            <g id="Group-11" transform="translate(17.000000, 20.499953)" fill="#2B3339">
                <path d="M30.5735713,0.230767538 C30.5735713,0.830803472 30.6133988,1.4215372 30.6905545,2.00046936 L22,2 L22,20 L40,20 L40.000817,12.9353158 C40.6478489,13.1307235 41.3157419,13.2780547 42.0003417,13.3731551 L42,33.0000467 C42,37.9706094 37.9705627,42.0000467 33,42.0000467 L9,42.0000467 C4.02943725,42.0000467 0,37.9706094 0,33.0000467 L0,9.00004669 C0,4.02948394 4.02943725,4.66924357e-05 9,4.66924357e-05 L30.5755376,-9.61994373e-13 C30.5742285,0.0767654875 30.5735713,0.153689766 30.5735713,0.230767538 Z M20,22 L2,22 L2,33.0000467 C2,36.7854984 5.00478338,39.8691454 8.75935025,39.9959877 L9,40.0000467 L20,40 L20,22 Z M40,22 L22,22 L22,40 L33,40.0000467 C36.7854517,40.0000467 39.8690987,36.9952633 39.995941,33.2406964 L40,33.0000467 L40,22 Z M20,2 L9,2.00004669 C5.21454828,2.00004669 2.13090132,5.00483007 2.00405902,8.75939694 L2,9.00004669 L2,20 L20,20 L20,2 Z" id="Combined-Shape"></path>
                <path d="M35.4042553,32.3086338 C35.9565401,32.3086338 36.4042553,32.756349 36.4042553,33.3086338 C36.4042553,33.8214696 36.0182151,34.2441409 35.5208764,34.301906 L35.4042553,34.3086338 L26.5957447,34.3086338 C26.0434599,34.3086338 25.5957447,33.8609185 25.5957447,33.3086338 C25.5957447,32.7957979 25.9817849,32.3731266 26.4791236,32.3153615 L26.5957447,32.3086338 L35.4042553,32.3086338 Z" id="Line-6-Copy-2"></path>
                <path d="M11.2896154,25.3658325 C11.8024512,25.3658325 12.2251225,25.7518727 12.2828877,26.2492114 L12.2896154,26.3658325 L12.2896154,29.7698325 L15.6946154,29.7708325 C16.2469001,29.7708325 16.6946154,30.2185478 16.6946154,30.7708325 C16.6946154,31.2836684 16.3085752,31.7063397 15.8112365,31.7641048 L15.6946154,31.7708325 L12.2896154,31.7698325 L12.2896154,35.1758325 C12.2896154,35.7281173 11.8419001,36.1758325 11.2896154,36.1758325 C10.7767795,36.1758325 10.3541082,35.7897923 10.2963431,35.2924536 L10.2896154,35.1758325 L10.2896154,31.7698325 L6.88461538,31.7708325 C6.33233063,31.7708325 5.88461538,31.3231173 5.88461538,30.7708325 C5.88461538,30.2579967 6.27065557,29.8353254 6.76799426,29.7775602 L6.88461538,29.7708325 L10.2896154,29.7698325 L10.2896154,26.3658325 C10.2896154,25.8135478 10.7373306,25.3658325 11.2896154,25.3658325 Z" id="Combined-Shape"></path>
                <path d="M14.9161883,7.53385745 C15.278818,7.89648715 15.3047202,8.46833255 14.9938947,8.8608502 L14.9161883,8.94807102 L12.5084708,11.3549642 L14.9161883,13.7634682 C15.3067126,14.1539925 15.3067126,14.7871575 14.9161883,15.1776818 C14.5535586,15.5403115 13.9817132,15.5662136 13.5891956,15.2553881 L13.5019748,15.1776818 L11.0934708,12.7699642 L8.68657759,15.1776818 C8.2960533,15.5682061 7.66288832,15.5682061 7.27236403,15.1776818 C6.90973433,14.8150521 6.88383221,14.2432067 7.19465767,13.850689 L7.27236403,13.7634682 L9.67947081,11.3549642 L7.27236403,8.94807102 C6.88183974,8.55754673 6.88183974,7.92438175 7.27236403,7.53385745 C7.63499373,7.17122776 8.20683912,7.14532563 8.59935678,7.45615109 L8.68657759,7.53385745 L11.0934708,9.94096424 L13.5019748,7.53385745 C13.8924991,7.14333316 14.525664,7.14333316 14.9161883,7.53385745 Z" id="Combined-Shape"></path>
                <path d="M35.4042553,27.3086338 C35.9565401,27.3086338 36.4042553,27.756349 36.4042553,28.3086338 C36.4042553,28.8214696 36.0182151,29.2441409 35.5208764,29.301906 L35.4042553,29.3086338 L26.5957447,29.3086338 C26.0434599,29.3086338 25.5957447,28.8609185 25.5957447,28.3086338 C25.5957447,27.7957979 25.9817849,27.3731266 26.4791236,27.3153615 L26.5957447,27.3086338 L35.4042553,27.3086338 Z" id="Line-6-Copy-3"></path>
                <path d="M35.1538462,10.1990084 C35.7061309,10.1990084 36.1538462,10.6467237 36.1538462,11.1990084 C36.1538462,11.7118443 35.767806,12.1345156 35.2704673,12.1922807 L35.1538462,12.1990084 L26.8461538,12.1990084 C26.2938691,12.1990084 25.8461538,11.7512932 25.8461538,11.1990084 C25.8461538,10.6861726 26.232194,10.2635013 26.7295327,10.2057362 L26.8461538,10.1990084 L35.1538462,10.1990084 Z" id="Line-6-Copy-7"></path>
            </g>
            <g id="Group-14" transform="translate(50.804040, 11.000000)" fill="#2B3339">
                <path d="M10,0 C15.5228475,0 20,4.4771525 20,10 C20,15.5228475 15.5228475,20 10,20 C4.4771525,20 0,15.5228475 0,10 C0,4.4771525 4.4771525,0 10,0 Z M10,2 C5.581722,2 2,5.581722 2,10 C2,14.418278 5.581722,18 10,18 C14.418278,18 18,14.418278 18,10 C18,5.581722 14.418278,2 10,2 Z" id="Oval" fill-rule="nonzero"></path>
                <path d="M10,9.19103502 C10.5128358,9.19103502 10.9355072,9.57707521 10.9932723,10.0744139 L11,10.191035 L11,14.2938188 C11,14.8461035 10.5522847,15.2938188 10,15.2938188 C9.48716416,15.2938188 9.06449284,14.9077786 9.00672773,14.4104399 L9,14.2938188 L9,10.191035 C9,9.63875027 9.44771525,9.19103502 10,9.19103502 Z" id="Path-3" fill-rule="nonzero"></path>
                <circle id="Oval" cx="10" cy="6.42507306" r="1"></circle>
            </g>
        </g>
    </g>
</svg>