<?xml version="1.0" encoding="UTF-8"?>
<svg width="44px" height="44px" viewBox="0 0 44 44" version="1.1" xmlns="http://www.w3.org/2000/svg" xmlns:xlink="http://www.w3.org/1999/xlink">
    <title>tips_and_updates_black_36dp</title>
    <g id="Design" stroke="none" stroke-width="1" fill="none" fill-rule="evenodd">
        <g id="tips_and_updates_black_36dp">
            <rect id="Rectangle" x="0" y="0" width="44" height="44"></rect>
            <path d="M37.3,18.5481961 L38.146,16.6941961 L40,15.8481961 L38.146,15.0021961 L37.3,13.1481961 L36.454,15.0021961 L34.6,15.8481961 L36.454,16.6941961 L37.3,18.5481961 Z M31.9,13.1481961 L33.304,10.0521961 L36.4,8.64819614 L33.304,7.24419614 L31.9,4.14819614 L30.496,7.24419614 L27.4,8.64819614 L30.496,10.0521961 L31.9,13.1481961 Z" id="Shape" fill="#2B3339" fill-rule="nonzero"></path>
            <path d="M24.9684081,29.6887094 L24.4699337,34.3244368 C24.1968246,36.8643054 22.0531016,38.7898741 19.4985916,38.7898741 L19.4985916,38.7898741 L18.3913524,38.7898741 C15.9159022,38.7898741 13.8130929,36.9785092 13.4464877,34.5303559 L13.4464877,34.5303559 L12.7214626,29.6887094 L24.9684081,29.6887094 Z M22.2037,35.0881668 L15.6860872,35.0876556 C16.1494654,36.0536801 17.1090234,36.7200074 18.2142456,36.7847025 L18.2142456,36.7847025 L18.3913524,36.7898741 L19.4985916,36.7898741 C20.6810639,36.7898741 21.7168355,36.102213 22.2037,35.0881668 Z M22.741,31.688 L15.043,31.688 L15.252355,33.0871961 L22.590355,33.0871961 L22.741,31.688 Z M18.899355,8.74819614 C24.8088018,8.74819614 29.599355,13.5387493 29.599355,19.4481961 C29.599355,22.8546234 28.0075486,25.8892644 25.5272012,27.8488536 L12.2715088,27.8488536 C9.79116143,25.8892644 8.19935502,22.8546234 8.19935502,19.4481961 C8.19935502,13.5387493 12.9899082,8.74819614 18.899355,8.74819614 Z M18.899355,10.7481961 C14.0944777,10.7481961 10.199355,14.6433188 10.199355,19.4481961 C10.199355,21.8352419 11.1649017,24.0600684 12.8263145,25.6782659 L13.007,25.848 L24.791,25.848 L24.9723956,25.6782659 C26.561573,24.1304248 27.514079,22.0275583 27.5939015,19.7585934 L27.599355,19.4481961 C27.599355,14.6433188 23.7042323,10.7481961 18.899355,10.7481961 Z" id="Combined-Shape" fill="#2B3339" fill-rule="nonzero"></path>
        </g>
    </g>
</svg>